<svg xmlns="http://www.w3.org/2000/svg" version="1.1" viewBox="1.63222074508667 1.340000033378601 945.3677978515625 915.0225219726562" width="947.00" height="917.00">
<g stroke-width="2.00" fill="none" stroke-linecap="butt">
<path stroke="#3e3d3d" d="&#10;  M 81.86 68.68&#10;  Q 68.18 70.12 54.26 68.58" data-c-stroke="6f2038"/>
<path stroke="#3e3d3d" d="&#10;  M 80.79 99.69&#10;  Q 69.20 99.60 57.75 99.63&#10;  Q 55.55 99.64 53.47 100.05" data-c-stroke="6f2038"/>
<path stroke="#3e3d3d" d="&#10;  M 81.55 194.38&#10;  Q 63.42 194.76 54.00 194.62&#10;  Q 53.62 194.62 53.20 194.04" data-c-stroke="6f2038"/>
<path stroke="#3e3d3d" d="&#10;  M 80.87 223.98&#10;  Q 67.57 223.48 53.87 223.84&#10;  Q 53.39 223.85 52.54 224.29" data-c-stroke="6f2038"/>
<path stroke="#3e3d3d" d="&#10;  M 81.21 274.61&#10;  Q 81.19 274.67 81.16 274.73&#10;  Q 81.12 274.84 81.00 274.84&#10;  Q 66.75 274.91 52.52 274.53" data-c-stroke="6f2038"/>
<path stroke="#3e3d3d" d="&#10;  M 81.04 304.67&#10;  Q 66.83 303.98 52.49 304.79" data-c-stroke="6f2038"/>
<path stroke="#3e3d3d" d="&#10;  M 81.14 351.29&#10;  Q 81.20 351.54 81.01 351.78&#10;  Q 80.87 351.94 80.59 352.00&#10;  Q 79.31 352.26 78.00 352.27&#10;  Q 66.00 352.36 54.00 352.11&#10;  Q 53.34 352.10 52.60 351.82" data-c-stroke="6f2038"/>
<path stroke="#3e3d3d" d="&#10;  M 80.90 382.80&#10;  Q 80.45 382.39 79.99 382.38&#10;  Q 68.25 382.05 52.50 382.66" data-c-stroke="6f2038"/>
<path stroke="#3e3d3d" d="&#10;  M 80.96 420.68&#10;  Q 66.85 421.95 52.51 420.51" data-c-stroke="6f2038"/>
<path stroke="#3e3d3d" d="&#10;  M 80.88 451.75&#10;  L 53.18 451.57" data-c-stroke="6f2038"/>
<path stroke="#3e3d3d" d="&#10;  M 82.98 510.23&#10;  L 53.01 510.33" data-c-stroke="6f2038"/>
<path stroke="#3e3d3d" d="&#10;  M 80.91 539.76&#10;  L 53.79 539.82&#10;  Q 53.56 539.82 53.37 539.95&#10;  Q 53.26 540.03 53.12 540.08" data-c-stroke="6f2038"/>
<path stroke="#3e3d3d" d="&#10;  M 81.73 584.13&#10;  Q 81.70 584.43 80.75 584.46&#10;  Q 66.78 584.93 53.15 584.42" data-c-stroke="6f2038"/>
<path stroke="#3e3d3d" d="&#10;  M 80.96 614.49&#10;  Q 68.01 614.17 55.00 614.39&#10;  Q 54.40 614.40 53.45 614.84" data-c-stroke="6f2038"/>
<path stroke="#3e3d3d" d="&#10;  M 83.24 670.20&#10;  Q 68.47 670.59 53.75 670.46&#10;  Q 53.33 670.45 52.97 670.04" data-c-stroke="6f2038"/>
<path stroke="#3e3d3d" d="&#10;  M 80.92 699.78&#10;  Q 80.59 699.31 80.00 699.31&#10;  Q 66.42 699.30 53.11 699.42" data-c-stroke="6f2038"/>
<path stroke="#3e3d3d" d="&#10;  M 82.73 740.23&#10;  L 53.64 740.27&#10;  Q 53.49 740.27 53.39 740.17&#10;  Q 53.29 740.08 53.19 739.95" data-c-stroke="6f2038"/>
<path stroke="#3e3d3d" d="&#10;  M 53.12 771.56&#10;  L 79.73 771.34&#10;  Q 80.05 771.34 80.35 771.47&#10;  Q 80.53 771.56 80.74 771.57" data-c-stroke="6f2038"/>
</g>
<path fill="#c16add" d="&#10;  M 81.86 68.68&#10;  Q 68.18 70.12 54.26 68.58&#10;  Q 54.44 66.48 54.50 64.71&#10;  C 54.62 61.29 55.89 58.39 56.21 55.07&#10;  C 56.77 49.13 59.38 42.86 62.04 37.47&#10;  C 62.89 35.77 64.37 34.53 65.20 32.82&#10;  C 67.58 27.91 70.92 22.75 75.20 19.38&#10;  Q 77.92 17.23 80.70 14.80&#10;  Q 88.47 8.01 97.99 5.14&#10;  C 102.53 3.77 107.66 2.20 112.46 2.11&#10;  C 115.52 2.05 118.41 1.55 121.53 1.55&#10;  Q 178.19 1.64 236.01 1.69&#10;  Q 245.70 1.70 256.00 1.79&#10;  Q 276.47 1.98 302.49 2.05&#10;  Q 343.63 2.17 383.25 1.93&#10;  Q 389.42 1.89 395.25 1.93&#10;  Q 400.26 1.96 405.26 1.78&#10;  Q 410.33 1.60 415.27 1.59&#10;  Q 547.93 1.36 679.82 1.34&#10;  Q 682.75 1.34 685.56 1.80&#10;  C 688.19 2.23 690.84 2.32 693.40 3.17&#10;  Q 699.46 5.17 705.46 7.44&#10;  C 709.04 8.80 712.35 11.17 716.12 12.85&#10;  Q 718.84 14.06 723.30 19.80&#10;  C 726.90 24.44 730.87 29.47 733.74 34.68&#10;  C 735.20 37.33 737.20 40.53 737.56 43.55&#10;  C 737.87 46.13 739.13 48.30 739.70 50.76&#10;  Q 741.78 59.81 741.79 67.81&#10;  Q 741.98 189.78 741.70 310.66&#10;  Q 741.69 315.58 740.63 319.80&#10;  Q 738.41 328.73 735.51 337.34&#10;  C 735.13 338.49 734.35 339.30 733.98 340.47&#10;  Q 733.01 343.54 731.49 346.73&#10;  C 729.94 349.95 729.11 353.38 727.57 356.52&#10;  Q 723.36 365.14 722.13 369.06&#10;  Q 720.93 372.90 719.46 376.54&#10;  C 718.00 380.16 717.29 383.27 716.65 386.79&#10;  A 0.81 0.81 0.0 0 1 715.17 387.09&#10;  Q 714.46 385.99 714.46 384.63&#10;  Q 714.50 376.42 714.51 368.52&#10;  C 714.52 366.01 715.57 363.64 715.56 361.31&#10;  Q 715.32 294.95 715.79 243.79&#10;  C 715.82 241.06 716.17 238.12 716.18 235.16&#10;  Q 716.25 173.87 716.17 113.10&#10;  C 716.17 110.27 715.73 107.43 715.72 104.57&#10;  Q 715.61 85.14 715.58 65.18&#10;  C 715.57 62.55 714.59 60.29 714.43 57.76&#10;  Q 714.30 55.49 713.63 53.23&#10;  C 713.05 51.26 712.77 49.21 711.75 47.38&#10;  Q 709.42 43.21 706.59 39.18&#10;  A 7.01 6.93 85.9 0 0 704.07 36.97&#10;  Q 700.20 34.97 696.76 32.60&#10;  C 693.39 30.28 689.58 29.62 685.81 28.21&#10;  Q 683.93 27.51 681.72 27.51&#10;  Q 546.48 27.43 409.83 27.24&#10;  Q 400.29 27.23 389.76 27.33&#10;  Q 348.56 27.70 288.01 27.37&#10;  Q 228.00 27.04 127.37 27.45&#10;  Q 119.66 27.48 114.54 27.91&#10;  Q 108.21 28.45 101.98 32.07&#10;  C 98.80 33.92 95.80 35.24 93.14 37.91&#10;  Q 89.29 41.78 86.89 45.40&#10;  Q 83.88 49.92 82.81 54.14&#10;  Q 81.05 61.13 81.86 68.68&#10;  Z" data-c-fill="dd2033"/>
<path fill="#925a92" d="&#10;  M 54.26 68.58&#10;  Q 68.18 70.12 81.86 68.68&#10;  Q 104.40 68.53 126.48 68.64&#10;  C 129.35 68.65 132.61 69.07 135.44 69.65&#10;  Q 139.87 70.55 143.17 73.48&#10;  C 147.43 77.26 147.39 85.49 145.81 90.36&#10;  Q 142.90 99.32 133.00 99.42&#10;  Q 106.82 99.71 80.79 99.69&#10;  Q 69.20 99.60 57.75 99.63&#10;  Q 55.55 99.64 53.47 100.05&#10;  Q 52.63 99.61 52.25 99.60&#10;  Q 44.82 99.45 30.56 99.58&#10;  C 28.25 99.60 26.13 99.08 23.89 98.68&#10;  Q 23.17 98.55 22.63 98.06&#10;  Q 19.31 95.02 18.17 92.48&#10;  C 16.45 88.65 15.62 81.17 17.91 76.97&#10;  C 19.84 73.43 23.37 68.54 28.00 68.57&#10;  Q 41.17 68.66 54.26 68.58&#10;  Z" data-c-fill="00203c"/>
<path fill="#c16add" d="&#10;  M 80.79 99.69&#10;  Q 80.73 146.05 80.73 192.00&#10;  Q 80.73 193.34 81.55 194.38&#10;  Q 63.42 194.76 54.00 194.62&#10;  Q 53.62 194.62 53.20 194.04&#10;  L 53.47 100.05&#10;  Q 55.55 99.64 57.75 99.63&#10;  Q 69.20 99.60 80.79 99.69&#10;  Z" data-c-fill="dd2033"/>
<path fill="#925a92" d="&#10;  M 947.00 206.47&#10;  L 947.00 225.05&#10;  Q 945.36 229.76 943.98 234.58&#10;  C 943.64 235.75 942.66 236.73 942.24 237.92&#10;  Q 937.45 251.60 931.62 264.84&#10;  C 931.07 266.10 930.11 267.08 929.79 268.37&#10;  Q 929.10 271.21 927.87 273.43&#10;  C 925.98 276.88 925.05 280.85 924.02 284.62&#10;  C 923.49 286.55 922.07 287.97 921.75 289.85&#10;  C 921.16 293.29 919.18 295.81 917.98 298.98&#10;  Q 914.62 307.86 912.05 316.06&#10;  Q 910.44 321.18 907.33 326.44&#10;  C 905.73 329.13 905.21 332.05 903.80 334.52&#10;  C 902.34 337.06 902.05 339.71 901.02 342.41&#10;  Q 896.66 353.83 892.25 365.23&#10;  Q 891.55 367.06 890.57 368.63&#10;  C 889.58 370.21 889.61 371.79 888.39 373.36&#10;  Q 884.06 378.94 875.65 378.42&#10;  C 872.81 378.24 870.73 376.86 868.42 375.39&#10;  Q 863.78 372.43 862.53 367.49&#10;  Q 861.66 364.07 863.43 360.89&#10;  Q 864.36 359.21 864.79 357.35&#10;  Q 865.52 354.23 866.82 351.90&#10;  Q 868.30 349.27 869.07 346.61&#10;  C 870.12 343.01 871.84 339.80 873.09 336.25&#10;  Q 876.44 326.67 877.90 323.65&#10;  Q 881.63 315.97 884.69 308.00&#10;  C 885.01 307.16 885.82 306.43 886.15 305.49&#10;  Q 888.68 298.36 891.26 290.75&#10;  Q 892.95 285.75 894.67 281.83&#10;  C 896.84 276.86 899.28 271.95 900.75 266.76&#10;  Q 902.98 258.87 906.21 253.04&#10;  C 910.27 245.72 913.10 238.71 915.54 230.83&#10;  Q 916.11 229.00 917.13 227.31&#10;  A 0.89 0.89 0.0 0 0 916.76 226.05&#10;  Q 914.83 225.08 912.97 224.33&#10;  Q 905.43 221.31 898.13 217.62&#10;  A 1.34 1.33 24.0 0 0 896.28 218.33&#10;  C 895.21 221.08 894.28 224.08 892.99 226.78&#10;  Q 892.09 228.66 891.50 230.56&#10;  Q 889.01 238.53 884.87 247.46&#10;  Q 884.07 249.18 883.13 251.07&#10;  Q 879.09 259.25 875.29 267.85&#10;  C 873.82 271.19 873.24 274.60 871.84 277.95&#10;  Q 868.42 286.14 864.45 293.80&#10;  C 862.40 297.77 861.66 302.14 860.05 306.34&#10;  C 858.97 309.13 857.94 311.94 856.62 314.62&#10;  Q 853.87 320.21 851.70 326.41&#10;  C 851.27 327.62 850.41 328.57 849.97 329.85&#10;  Q 848.39 334.45 846.44 338.80&#10;  C 844.98 342.05 844.52 346.01 842.58 349.08&#10;  C 840.89 351.74 840.38 354.98 839.13 357.95&#10;  C 836.65 363.84 833.99 369.83 832.06 375.95&#10;  Q 830.75 380.12 828.73 384.07&#10;  Q 826.33 388.79 824.73 393.26&#10;  Q 823.12 397.80 821.25 402.27&#10;  C 820.22 404.76 818.51 406.89 817.84 409.61&#10;  Q 817.05 412.79 815.66 415.73&#10;  Q 813.36 420.57 812.06 424.62&#10;  Q 811.29 427.03 810.33 429.33&#10;  C 809.15 432.18 808.86 435.50 807.02 438.06&#10;  C 805.74 439.84 805.59 442.21 804.69 444.27&#10;  Q 802.22 449.97 799.98 455.79&#10;  C 799.52 456.99 798.43 457.50 798.09 458.75&#10;  Q 796.86 463.30 795.75 465.17&#10;  Q 793.22 469.47 792.23 473.01&#10;  Q 791.69 474.96 790.97 476.45&#10;  Q 789.54 479.44 789.43 479.72&#10;  C 787.52 484.65 785.45 489.64 784.08 494.63&#10;  Q 782.87 499.03 781.14 502.21&#10;  Q 780.77 502.89 780.48 503.57&#10;  Q 777.95 509.50 775.21 515.50&#10;  Q 773.93 518.30 773.13 521.15&#10;  C 772.41 523.74 771.14 526.01 770.21 528.52&#10;  Q 769.02 531.71 766.74 535.94&#10;  Q 763.00 542.91 759.40 554.74&#10;  C 759.00 556.06 758.09 557.08 757.84 558.49&#10;  C 757.44 560.74 755.99 562.53 755.30 564.67&#10;  Q 752.74 572.54 749.24 579.79&#10;  Q 748.45 581.42 747.98 582.77&#10;  Q 747.46 584.28 746.71 585.50&#10;  C 744.64 588.91 744.03 592.54 742.40 596.06&#10;  C 740.95 599.17 740.29 602.53 738.75 605.59&#10;  C 737.78 607.52 737.42 609.68 736.42 611.70&#10;  Q 733.81 616.95 732.24 621.56&#10;  Q 731.68 623.20 730.86 624.47&#10;  C 729.28 626.91 728.26 630.02 727.12 632.71&#10;  C 726.39 634.43 726.05 636.47 725.13 638.02&#10;  Q 724.54 638.99 724.24 640.06&#10;  Q 722.42 646.64 718.96 652.77&#10;  C 717.82 654.81 717.21 656.93 716.60 659.17&#10;  C 716.01 661.31 714.73 662.98 714.14 665.08&#10;  C 713.23 668.28 711.91 671.34 710.76 674.44&#10;  Q 709.55 677.72 708.17 680.47&#10;  Q 705.89 685.01 703.96 689.60&#10;  C 703.43 690.86 702.40 691.78 701.89 693.06&#10;  Q 699.65 698.69 696.88 704.60&#10;  Q 696.13 706.19 695.73 707.94&#10;  C 695.36 709.53 694.30 710.76 693.84 712.36&#10;  C 692.67 716.36 690.54 719.88 689.53 723.93&#10;  Q 688.35 728.61 686.01 732.80&#10;  C 684.60 735.32 683.99 738.10 682.48 740.51&#10;  C 681.11 742.70 680.36 745.20 679.26 747.52&#10;  Q 678.32 749.50 677.56 751.58&#10;  Q 675.95 755.95 673.93 759.80&#10;  Q 672.66 762.23 671.82 764.75&#10;  Q 670.68 768.18 667.14 770.76&#10;  C 665.82 771.73 664.80 772.87 663.78 774.13&#10;  C 662.60 775.57 660.36 775.96 658.78 776.92&#10;  Q 657.54 777.68 655.88 778.12&#10;  C 647.06 780.47 641.60 776.20 633.97 773.30&#10;  Q 629.38 771.56 625.16 769.63&#10;  C 620.96 767.71 616.78 765.93 612.68 763.66&#10;  Q 606.43 760.21 600.45 757.06&#10;  C 598.22 755.89 595.35 754.27 593.32 752.19&#10;  C 591.86 750.69 590.15 749.73 588.82 748.06&#10;  Q 586.01 744.53 585.50 739.56&#10;  Q 584.74 732.17 585.99 727.70&#10;  C 587.01 724.03 588.49 719.81 590.31 716.41&#10;  C 591.60 714.00 592.33 711.49 593.48 709.04&#10;  Q 597.41 700.65 600.42 691.90&#10;  Q 601.28 689.40 602.34 687.25&#10;  C 603.74 684.41 604.44 681.43 605.79 678.63&#10;  C 606.59 676.98 607.56 675.29 608.05 673.54&#10;  Q 609.23 669.30 611.23 665.61&#10;  C 613.36 661.68 614.06 657.45 616.24 653.43&#10;  C 618.87 648.57 620.64 643.20 622.49 638.01&#10;  Q 623.78 634.37 626.70 628.03&#10;  C 628.44 624.25 629.70 620.32 631.24 616.31&#10;  Q 634.40 608.06 637.77 601.49&#10;  C 639.34 598.42 640.11 594.89 641.76 591.95&#10;  C 643.68 588.54 644.66 584.84 646.31 581.30&#10;  Q 648.58 576.44 650.36 570.84&#10;  C 650.73 569.67 651.77 568.82 652.04 567.71&#10;  Q 652.99 563.89 654.66 560.80&#10;  C 656.64 557.17 657.84 553.51 659.28 549.67&#10;  Q 660.83 545.54 662.84 541.25&#10;  C 664.56 537.58 665.72 533.68 667.32 529.96&#10;  Q 671.71 519.78 675.60 510.37&#10;  Q 676.05 509.27 676.47 507.86&#10;  C 677.34 504.93 678.97 502.14 679.95 499.21&#10;  Q 681.07 495.86 682.65 492.72&#10;  Q 687.85 482.39 691.72 470.78&#10;  C 692.23 469.26 692.43 467.71 693.02 466.20&#10;  Q 695.05 461.04 697.50 456.24&#10;  Q 699.93 451.49 701.76 446.48&#10;  Q 704.20 439.82 707.33 433.45&#10;  C 709.54 428.96 711.47 424.29 712.82 419.42&#10;  Q 714.33 413.94 716.53 409.68&#10;  C 719.34 404.22 721.12 398.67 723.60 393.19&#10;  C 725.62 388.69 727.76 384.23 729.55 379.65&#10;  Q 730.72 376.68 732.15 373.80&#10;  C 733.54 371.03 734.15 368.02 735.63 365.41&#10;  C 738.10 361.02 739.23 356.25 741.23 351.70&#10;  Q 752.61 325.66 764.01 299.46&#10;  C 764.99 297.20 765.40 294.76 766.45 292.55&#10;  Q 770.06 284.94 773.27 277.15&#10;  Q 774.13 275.06 775.10 273.11&#10;  C 776.21 270.87 776.54 268.53 777.65 266.42&#10;  C 780.21 261.55 781.61 256.42 783.95 251.50&#10;  C 785.31 248.66 786.30 245.82 787.43 242.98&#10;  Q 789.70 237.28 791.89 231.56&#10;  Q 793.27 227.94 795.33 224.45&#10;  C 797.07 221.50 797.71 218.16 799.24 214.95&#10;  Q 803.30 206.41 806.39 198.62&#10;  C 807.57 195.64 809.64 192.99 810.41 189.87&#10;  Q 812.69 180.65 816.05 173.86&#10;  Q 817.94 170.05 818.90 167.13&#10;  C 822.46 156.36 827.40 144.76 835.24 136.94&#10;  Q 840.71 131.49 847.21 127.37&#10;  Q 853.17 123.58 859.69 122.44&#10;  Q 868.91 120.83 878.50 122.16&#10;  C 883.54 122.86 888.27 124.93 892.74 127.23&#10;  C 896.31 129.08 899.52 131.92 901.99 135.08&#10;  C 904.01 137.67 906.75 139.32 908.55 142.07&#10;  C 912.44 148.00 915.81 154.24 916.38 161.31&#10;  Q 916.57 163.66 917.11 165.81&#10;  C 917.95 169.14 917.59 172.33 917.66 175.66&#10;  Q 917.68 176.27 917.38 176.81&#10;  C 916.30 178.72 916.77 180.66 916.26 182.75&#10;  Q 915.15 187.36 913.89 192.07&#10;  A 0.78 0.78 0.0 0 0 914.38 193.00&#10;  Q 917.48 194.10 920.60 195.00&#10;  Q 924.56 196.14 926.81 197.01&#10;  Q 937.71 201.23 947.00 206.47&#10;  Z&#10;  M 880.46 175.57&#10;  C 882.77 176.37 884.63 177.82 886.99 178.19&#10;  A 0.95 0.95 0.0 0 0 888.08 177.38&#10;  C 889.12 169.94 889.58 163.07 883.76 157.33&#10;  C 882.39 155.98 880.74 154.29 878.93 153.66&#10;  C 877.14 153.04 875.72 151.94 873.77 151.79&#10;  Q 871.70 151.62 869.61 151.09&#10;  C 865.58 150.06 859.20 151.14 857.09 155.48&#10;  Q 856.71 156.26 855.96 156.71&#10;  Q 853.34 158.29 853.08 161.89&#10;  Q 853.05 162.24 853.26 162.52&#10;  Q 854.68 164.47 856.82 165.51&#10;  Q 864.71 169.36 872.89 172.71&#10;  Q 876.47 174.17 880.46 175.57&#10;  Z" data-c-fill="00203c"/>
<path fill="#c16add" d="&#10;  M 213.35 122.44&#10;  Q 215.53 122.27 223.00 122.26&#10;  Q 377.05 122.15 497.75 122.29&#10;  Q 577.85 122.38 650.57 122.36&#10;  C 653.84 122.36 656.34 123.25 656.18 126.94&#10;  A 1.53 1.52 1.0 0 1 654.66 128.40&#10;  Q 437.00 128.49 220.30 128.31&#10;  Q 216.63 128.31 212.67 128.11&#10;  Q 210.18 127.99 210.50 125.52&#10;  L 210.56 125.07&#10;  Q 210.89 122.63 213.35 122.44&#10;  Z" data-c-fill="dd2033"/>
<path fill="#925a92" d="&#10;  M 53.20 194.04&#10;  Q 53.62 194.62 54.00 194.62&#10;  Q 63.42 194.76 81.55 194.38&#10;  Q 83.08 194.12 84.77 194.18&#10;  Q 87.65 194.29 87.73 194.28&#10;  Q 117.50 194.13 132.74 194.26&#10;  Q 138.41 194.31 142.66 198.14&#10;  C 147.30 202.33 147.44 210.92 145.42 216.43&#10;  Q 143.91 220.55 139.92 222.46&#10;  Q 137.48 223.63 131.95 223.71&#10;  Q 124.12 223.84 115.76 223.69&#10;  C 113.78 223.65 111.75 224.21 109.75 224.20&#10;  Q 100.62 224.15 91.50 224.18&#10;  Q 86.30 224.20 80.87 223.98&#10;  Q 67.57 223.48 53.87 223.84&#10;  Q 53.39 223.85 52.54 224.29&#10;  Q 52.58 223.80 52.00 223.80&#10;  Q 39.95 223.65 27.25 223.74&#10;  Q 22.47 223.78 20.32 220.76&#10;  C 14.68 212.86 15.52 203.73 21.27 196.17&#10;  Q 22.59 194.44 25.00 194.41&#10;  Q 38.75 194.26 52.50 194.36&#10;  Q 52.93 194.36 53.20 194.04&#10;  Z" data-c-fill="00203c"/>
<path fill="#c16add" d="&#10;  M 80.87 223.98&#10;  Q 80.53 249.49 80.89 274.23&#10;  Q 80.89 274.46 81.21 274.61&#10;  Q 81.19 274.67 81.16 274.73&#10;  Q 81.12 274.84 81.00 274.84&#10;  Q 66.75 274.91 52.52 274.53&#10;  L 52.54 224.29&#10;  Q 53.39 223.85 53.87 223.84&#10;  Q 67.57 223.48 80.87 223.98&#10;  Z" data-c-fill="dd2033"/>
<path fill="#c06adc" d="&#10;  M 519.96 236.41&#10;  C 516.90 236.39 513.85 235.79 510.75 235.77&#10;  Q 481.15 235.54 451.38 235.32&#10;  C 443.79 235.27 436.32 234.80 428.63 234.76&#10;  Q 314.84 234.24 211.74 234.52&#10;  Q 210.09 234.52 210.14 232.87&#10;  L 210.20 231.01&#10;  Q 210.26 229.47 211.79 229.31&#10;  C 220.13 228.47 228.04 229.42 236.06 229.42&#10;  Q 364.40 229.36 492.74 229.35&#10;  C 512.24 229.35 531.98 229.70 551.32 229.65&#10;  C 553.99 229.65 556.66 230.01 559.32 230.03&#10;  Q 607.36 230.38 655.01 230.54&#10;  Q 656.78 230.55 656.81 232.31&#10;  L 656.85 234.94&#10;  Q 656.88 236.79 655.03 236.79&#10;  Q 585.47 236.86 519.96 236.41&#10;  Z" data-c-fill="f3323f"/>
<path fill="#925a92" d="&#10;  M 52.52 274.53&#10;  Q 66.75 274.91 81.00 274.84&#10;  Q 81.12 274.84 81.16 274.73&#10;  Q 81.19 274.67 81.21 274.61&#10;  Q 107.96 275.26 134.74 275.19&#10;  Q 137.88 275.18 139.65 275.97&#10;  C 142.98 277.45 145.11 280.16 145.86 283.83&#10;  Q 146.56 287.22 146.28 289.66&#10;  Q 146.04 291.78 145.86 293.96&#10;  C 145.62 296.79 144.53 299.44 142.92 301.66&#10;  C 140.57 304.91 135.59 304.76 131.75 304.74&#10;  Q 106.40 304.63 81.04 304.67&#10;  Q 66.83 303.98 52.49 304.79&#10;  Q 49.97 304.46 47.25 304.46&#10;  Q 28.81 304.47 10.50 304.55&#10;  Q 9.02 304.56 6.89 302.87&#10;  C 4.94 301.32 4.47 299.24 3.42 297.11&#10;  Q 2.79 295.83 2.44 294.30&#10;  Q 0.08 284.10 7.13 276.13&#10;  C 8.12 275.02 10.95 274.49 12.57 274.51&#10;  Q 30.02 274.74 47.41 274.51&#10;  Q 48.67 274.49 50.00 274.41&#10;  Q 51.31 274.33 52.52 274.53&#10;  Z" data-c-fill="00203c"/>
<path fill="#c16add" d="&#10;  M 81.04 304.67&#10;  L 81.14 351.29&#10;  Q 81.20 351.54 81.01 351.78&#10;  Q 80.87 351.94 80.59 352.00&#10;  Q 79.31 352.26 78.00 352.27&#10;  Q 66.00 352.36 54.00 352.11&#10;  Q 53.34 352.10 52.60 351.82&#10;  L 52.49 304.79&#10;  Q 66.83 303.98 81.04 304.67&#10;  Z" data-c-fill="dd2033"/>
<path fill="#c06adc" d="&#10;  M 210.21 346.19&#10;  L 210.19 342.87&#10;  A 1.38 1.38 0.0 0 1 211.57 341.48&#10;  Q 366.48 341.27 432.00 341.00&#10;  Q 458.02 340.90 487.00 341.03&#10;  Q 540.11 341.28 590.74 341.09&#10;  C 592.71 341.08 594.61 340.77 596.59 340.75&#10;  Q 627.00 340.51 654.12 341.18&#10;  Q 656.94 341.25 656.96 344.07&#10;  L 656.96 344.39&#10;  Q 656.98 346.71 654.66 346.73&#10;  Q 639.57 346.88 624.67 346.84&#10;  C 623.13 346.84 621.64 347.44 620.25 347.44&#10;  C 484.08 347.41 347.93 347.43 211.74 347.71&#10;  Q 210.22 347.71 210.21 346.19&#10;  Z" data-c-fill="f3323f"/>
<path fill="#925a92" d="&#10;  M 81.14 351.29&#10;  Q 81.68 351.56 82.21 351.56&#10;  Q 108.11 351.69 134.00 351.60&#10;  Q 137.07 351.59 141.23 354.36&#10;  C 146.78 358.07 147.77 367.84 145.53 373.33&#10;  Q 143.36 378.66 137.68 381.07&#10;  Q 134.85 382.26 127.94 382.32&#10;  Q 103.28 382.52 81.75 382.43&#10;  Q 80.96 382.42 80.90 382.80&#10;  Q 80.45 382.39 79.99 382.38&#10;  Q 68.25 382.05 52.50 382.66&#10;  Q 51.61 382.62 49.74 382.56&#10;  Q 40.20 382.26 32.89 382.38&#10;  Q 28.28 382.46 25.62 381.46&#10;  C 18.95 378.97 15.59 372.21 16.48 365.29&#10;  C 16.93 361.74 18.77 355.18 22.67 353.88&#10;  C 24.75 353.18 26.38 352.30 28.69 352.27&#10;  Q 39.80 352.13 51.75 352.22&#10;  Q 52.40 352.22 52.60 351.82&#10;  Q 53.34 352.10 54.00 352.11&#10;  Q 66.00 352.36 78.00 352.27&#10;  Q 79.31 352.26 80.59 352.00&#10;  Q 80.87 351.94 81.01 351.78&#10;  Q 81.20 351.54 81.14 351.29&#10;  Z" data-c-fill="00203c"/>
<path fill="#c16add" d="&#10;  M 80.90 382.80&#10;  L 80.96 420.68&#10;  Q 66.85 421.95 52.51 420.51&#10;  L 52.50 382.66&#10;  Q 68.25 382.05 79.99 382.38&#10;  Q 80.45 382.39 80.90 382.80&#10;  Z" data-c-fill="dd2033"/>
<path fill="#925a92" d="&#10;  M 52.51 420.51&#10;  Q 66.85 421.95 80.96 420.68&#10;  Q 103.00 420.53 124.80 420.54&#10;  Q 135.15 420.54 138.19 421.71&#10;  Q 146.01 424.71 146.65 435.22&#10;  C 147.24 444.84 142.07 451.60 131.75 451.53&#10;  Q 106.60 451.34 82.05 451.38&#10;  Q 81.18 451.38 80.88 451.75&#10;  L 53.18 451.57&#10;  Q 43.47 451.27 33.67 451.34&#10;  Q 26.39 451.39 24.04 450.26&#10;  Q 19.15 447.89 17.23 441.74&#10;  C 15.22 435.31 17.37 428.32 21.53 423.37&#10;  C 23.44 421.09 27.21 420.36 30.10 420.34&#10;  Q 41.25 420.25 52.51 420.51&#10;  Z" data-c-fill="00203c"/>
<path fill="#c16add" d="&#10;  M 80.88 451.75&#10;  Q 80.76 493.53 80.82 508.25&#10;  Q 80.83 510.23 82.98 510.23&#10;  L 53.01 510.33&#10;  L 53.18 451.57&#10;  L 80.88 451.75&#10;  Z" data-c-fill="dd2033"/>
<path fill="#c06adc" d="&#10;  M 655.08 453.93&#10;  Q 656.73 453.94 656.64 455.59&#10;  L 656.50 458.13&#10;  Q 656.40 459.90 654.63 459.89&#10;  Q 582.22 459.59 519.25 459.96&#10;  Q 516.05 459.98 512.25 460.07&#10;  Q 489.31 460.62 471.49 460.22&#10;  Q 469.46 460.17 467.58 460.15&#10;  Q 465.60 460.12 463.77 460.29&#10;  Q 458.13 460.83 452.50 460.36&#10;  Q 446.88 459.88 441.77 459.87&#10;  Q 326.20 459.48 211.78 459.27&#10;  Q 210.50 459.27 210.37 458.00&#10;  Q 210.19 456.20 210.40 454.63&#10;  Q 210.59 453.17 212.07 453.17&#10;  L 655.08 453.93&#10;  Z" data-c-fill="f3323f"/>
<path fill="#925a92" d="&#10;  M 82.98 510.23&#10;  Q 108.22 510.19 133.50 509.97&#10;  Q 140.39 509.91 144.06 515.48&#10;  C 147.98 521.45 148.07 534.00 140.66 537.57&#10;  Q 136.36 539.65 131.50 539.66&#10;  Q 106.27 539.69 80.91 539.76&#10;  L 53.79 539.82&#10;  Q 53.56 539.82 53.37 539.95&#10;  Q 53.26 540.03 53.12 540.08&#10;  Q 52.39 539.67 52.00 539.67&#10;  Q 39.91 539.83 27.82 539.68&#10;  C 26.19 539.66 23.10 539.30 21.91 538.09&#10;  C 17.13 533.24 15.03 527.53 16.70 521.14&#10;  C 18.17 515.48 21.39 510.59 27.75 510.38&#10;  Q 32.84 510.21 53.01 510.33&#10;  L 82.98 510.23&#10;  Z" data-c-fill="00203c"/>
<path fill="#c16add" d="&#10;  M 80.91 539.76&#10;  Q 80.40 564.71 80.96 583.50&#10;  Q 80.97 584.10 81.73 584.13&#10;  Q 81.70 584.43 80.75 584.46&#10;  Q 66.78 584.93 53.15 584.42&#10;  L 53.12 540.08&#10;  Q 53.26 540.03 53.37 539.95&#10;  Q 53.56 539.82 53.79 539.82&#10;  L 80.91 539.76&#10;  Z" data-c-fill="dd2033"/>
<path fill="#c06adc" d="&#10;  M 627.15 558.32&#10;  Q 629.25 558.31 629.07 560.40&#10;  L 628.92 562.35&#10;  Q 628.74 564.56 626.52 564.56&#10;  Q 458.30 564.64 292.22 564.43&#10;  Q 281.95 564.42 272.22 564.53&#10;  Q 242.42 564.85 212.00 564.19&#10;  Q 210.40 564.15 209.23 562.08&#10;  Q 208.66 561.07 209.77 559.61&#10;  A 2.64 2.63 18.5 0 1 211.87 558.57&#10;  L 627.15 558.32&#10;  Z" data-c-fill="f3323f"/>
<path fill="#925a92" d="&#10;  M 81.73 584.13&#10;  Q 84.08 584.37 86.50 584.37&#10;  Q 108.52 584.36 130.55 584.35&#10;  C 134.88 584.34 141.15 585.52 143.48 589.52&#10;  C 144.64 591.51 145.76 593.87 145.83 596.22&#10;  C 145.90 598.29 147.00 600.22 146.39 602.24&#10;  Q 145.79 604.23 145.59 606.31&#10;  Q 145.43 607.92 143.96 609.52&#10;  C 138.68 615.29 133.78 614.69 125.05 614.65&#10;  Q 103.51 614.56 83.00 614.58&#10;  Q 81.98 614.58 80.96 614.49&#10;  Q 68.01 614.17 55.00 614.39&#10;  Q 54.40 614.40 53.45 614.84&#10;  Q 52.98 614.65 52.50 614.64&#10;  Q 40.02 614.30 28.51 614.47&#10;  C 25.05 614.51 20.68 612.31 18.97 609.06&#10;  Q 14.87 601.26 16.62 594.60&#10;  Q 17.05 592.94 20.20 588.22&#10;  C 22.31 585.05 25.49 584.31 29.46 584.31&#10;  Q 41.20 584.34 53.15 584.42&#10;  Q 66.78 584.93 80.75 584.46&#10;  Q 81.70 584.43 81.73 584.13&#10;  Z" data-c-fill="00203c"/>
<path fill="#c16add" d="&#10;  M 80.96 614.49&#10;  Q 80.52 641.93 80.89 668.75&#10;  Q 80.91 670.12 83.24 670.20&#10;  Q 68.47 670.59 53.75 670.46&#10;  Q 53.33 670.45 52.97 670.04&#10;  L 53.14 615.45&#10;  Q 53.14 615.24 53.27 615.08&#10;  L 53.45 614.84&#10;  Q 54.40 614.40 55.00 614.39&#10;  Q 68.01 614.17 80.96 614.49&#10;  Z" data-c-fill="dd2033"/>
<path fill="#c16add" d="&#10;  M 53.12 771.56&#10;  L 79.73 771.34&#10;  Q 80.05 771.34 80.35 771.47&#10;  Q 80.53 771.56 80.74 771.57&#10;  C 80.86 773.90 80.46 776.46 80.46 778.49&#10;  C 80.42 801.90 80.59 825.32 80.43 848.72&#10;  Q 80.39 855.62 82.24 861.61&#10;  Q 83.85 866.80 85.58 871.67&#10;  Q 86.97 875.58 91.48 879.15&#10;  Q 95.99 882.72 100.29 885.25&#10;  Q 102.54 886.58 105.16 887.32&#10;  C 108.60 888.28 111.91 890.11 115.54 890.12&#10;  C 208.78 890.54 290.13 890.06 379.00 890.11&#10;  Q 533.19 890.21 682.09 890.00&#10;  Q 685.10 890.00 690.65 887.66&#10;  Q 698.62 884.30 702.48 881.61&#10;  Q 705.19 879.71 707.54 876.66&#10;  Q 709.63 873.95 710.93 870.31&#10;  C 713.83 862.18 715.47 857.37 715.47 850.94&#10;  Q 715.43 783.82 715.56 708.24&#10;  Q 715.58 700.19 716.11 692.57&#10;  Q 716.39 688.49 717.75 684.70&#10;  C 720.52 676.96 723.52 669.10 725.79 661.32&#10;  Q 728.32 652.67 730.47 648.75&#10;  Q 735.59 639.41 739.26 630.46&#10;  Q 739.80 629.14 740.71 628.28&#10;  A 0.61 0.61 0.0 0 1 741.74 628.72&#10;  C 741.83 701.24 742.26 776.03 741.80 850.87&#10;  Q 741.78 854.22 741.15 857.96&#10;  Q 740.55 861.56 739.85 865.07&#10;  Q 738.58 871.44 736.46 877.82&#10;  C 734.79 882.88 731.21 886.95 728.38 891.41&#10;  C 726.85 893.81 724.23 894.90 722.67 897.27&#10;  C 719.46 902.13 714.62 904.15 710.72 907.93&#10;  C 708.36 910.22 705.54 910.74 702.53 911.53&#10;  C 698.24 912.67 694.49 914.76 690.08 915.46&#10;  C 686.22 916.07 682.30 916.34 678.24 916.35&#10;  Q 604.06 916.42 521.74 916.10&#10;  Q 519.52 916.09 517.51 916.12&#10;  Q 492.05 916.44 461.50 916.21&#10;  C 453.12 916.14 444.88 916.37 436.47 915.94&#10;  C 430.18 915.62 423.77 916.42 417.52 916.11&#10;  C 414.36 915.95 411.28 915.71 408.11 915.95&#10;  C 403.29 916.32 398.47 915.84 393.62 915.84&#10;  Q 301.19 915.70 208.01 915.74&#10;  C 205.50 915.74 202.94 916.29 200.38 916.29&#10;  Q 160.23 916.31 119.08 916.34&#10;  C 115.23 916.34 111.39 915.76 107.54 915.40&#10;  C 104.62 915.13 100.26 914.19 97.62 912.82&#10;  C 94.06 910.97 90.29 910.40 86.71 908.40&#10;  Q 83.24 906.46 80.53 904.01&#10;  C 78.09 901.81 75.34 900.39 73.19 897.80&#10;  C 69.21 892.98 66.02 887.77 62.36 882.72&#10;  Q 59.67 879.00 58.60 874.47&#10;  Q 57.41 869.46 55.97 863.84&#10;  Q 54.31 857.40 53.89 852.88&#10;  Q 53.12 844.59 53.23 834.75&#10;  Q 53.38 821.66 53.12 771.56&#10;  Z" data-c-fill="dd2033"/>
<path fill="#c16add" d="&#10;  M 212.68 670.88&#10;  Q 210.64 669.58 210.52 667.68&#10;  Q 210.28 664.11 213.81 664.13&#10;  Q 317.91 664.64 431.69 663.90&#10;  C 434.23 663.88 436.66 663.34 439.16 663.52&#10;  C 443.02 663.81 447.00 663.36 450.86 663.35&#10;  Q 516.35 663.12 580.86 663.20&#10;  A 1.10 1.09 -86.7 0 1 581.94 664.42&#10;  Q 581.86 665.14 581.41 665.76&#10;  Q 580.16 667.48 579.27 669.14&#10;  A 1.43 1.42 13.9 0 1 578.01 669.89&#10;  C 564.33 669.88 550.14 670.53 536.96 670.55&#10;  Q 429.25 670.67 320.58 670.88&#10;  C 319.15 670.88 317.73 671.16 316.27 671.18&#10;  Q 268.42 671.59 214.46 671.40&#10;  A 3.46 3.42 61.0 0 1 212.68 670.88&#10;  Z" data-c-fill="dd2033"/>
<path fill="#925a92" d="&#10;  M 52.97 670.04&#10;  Q 53.33 670.45 53.75 670.46&#10;  Q 68.47 670.59 83.24 670.20&#10;  Q 107.58 670.18 132.00 670.28&#10;  C 138.09 670.31 142.71 670.84 145.19 677.42&#10;  Q 148.18 685.31 145.31 692.17&#10;  C 143.85 695.66 140.17 697.39 136.87 698.64&#10;  Q 134.83 699.40 131.59 699.41&#10;  Q 105.86 699.46 81.75 699.44&#10;  Q 80.91 699.44 80.92 699.78&#10;  Q 80.59 699.31 80.00 699.31&#10;  Q 66.42 699.30 53.11 699.42&#10;  Q 51.26 699.59 49.50 699.57&#10;  Q 30.49 699.30 12.50 699.46&#10;  C 7.76 699.50 3.95 695.77 2.56 691.26&#10;  Q -0.22 682.25 5.33 673.52&#10;  C 6.34 671.95 8.00 671.41 9.61 670.67&#10;  Q 10.61 670.21 11.88 670.21&#10;  Q 31.31 670.21 50.73 670.16&#10;  C 51.43 670.16 52.12 670.54 52.97 670.04&#10;  Z" data-c-fill="00203c"/>
<path fill="#c16add" d="&#10;  M 80.92 699.78&#10;  Q 80.45 725.87 80.87 739.13&#10;  Q 80.91 740.10 82.73 740.23&#10;  L 53.64 740.27&#10;  Q 53.49 740.27 53.39 740.17&#10;  Q 53.29 740.08 53.19 739.95&#10;  L 53.11 699.42&#10;  Q 66.42 699.30 80.00 699.31&#10;  Q 80.59 699.31 80.92 699.78&#10;  Z" data-c-fill="dd2033"/>
<path fill="#925a92" d="&#10;  M 53.19 739.95&#10;  Q 53.29 740.08 53.39 740.17&#10;  Q 53.49 740.27 53.64 740.27&#10;  L 82.73 740.23&#10;  Q 104.66 740.16 126.63 740.17&#10;  C 133.90 740.17 138.36 739.92 143.10 744.27&#10;  C 147.09 747.94 146.79 756.64 145.63 761.78&#10;  C 144.23 768.01 138.10 771.48 132.00 771.51&#10;  Q 108.22 771.63 81.50 771.37&#10;  Q 81.06 771.36 80.74 771.57&#10;  Q 80.53 771.56 80.35 771.47&#10;  Q 80.05 771.34 79.73 771.34&#10;  L 53.12 771.56&#10;  Q 45.08 771.37 37.14 771.35&#10;  Q 28.10 771.33 25.26 770.04&#10;  Q 18.24 766.85 16.69 758.71&#10;  Q 15.13 750.48 20.80 743.69&#10;  C 24.05 739.81 27.49 740.25 31.96 740.21&#10;  Q 42.74 740.10 52.50 740.20&#10;  Q 52.92 740.21 53.19 739.95&#10;  Z" data-c-fill="00203c"/>
<path fill="#925a92" d="&#10;  M 636.93 784.28&#10;  A 0.43 0.43 0.0 0 1 637.16 784.66&#10;  Q 637.10 787.46 635.33 789.48&#10;  C 633.73 791.30 634.24 793.26 633.16 795.20&#10;  C 631.06 798.99 629.63 802.94 627.54 806.79&#10;  Q 625.54 810.46 623.66 814.12&#10;  C 621.58 818.16 620.86 822.60 618.19 826.28&#10;  Q 616.50 828.61 615.09 831.35&#10;  Q 612.60 836.17 610.17 840.57&#10;  C 608.68 843.27 608.19 847.59 606.75 850.91&#10;  C 605.63 853.50 604.86 856.43 602.37 858.06&#10;  C 596.75 861.72 590.80 862.20 583.93 861.61&#10;  C 582.20 861.46 581.23 860.33 579.55 860.05&#10;  C 572.44 858.88 567.55 851.37 565.79 844.55&#10;  Q 565.17 842.16 565.74 840.11&#10;  Q 567.60 833.40 570.44 827.42&#10;  Q 572.00 824.14 573.00 820.91&#10;  C 574.02 817.62 575.69 814.65 576.72 811.49&#10;  Q 579.24 803.74 582.76 796.49&#10;  Q 584.00 793.95 584.59 791.38&#10;  C 585.16 788.92 585.82 786.35 586.77 784.03&#10;  Q 590.10 775.89 593.60 767.68&#10;  A 2.86 2.86 0.0 0 1 597.44 766.21&#10;  Q 602.58 768.62 608.15 771.10&#10;  C 614.01 773.71 619.42 777.24 625.44 779.35&#10;  Q 631.29 781.39 636.93 784.28&#10;  Z" data-c-fill="00203c"/>
<path fill="#c16add" d="&#10;  M 211.86 772.08&#10;  Q 327.51 772.13 379.33 771.88&#10;  C 386.67 771.85 393.94 771.40 401.23 771.39&#10;  Q 477.65 771.28 557.35 771.31&#10;  A 1.50 1.50 0.0 0 1 558.85 772.79&#10;  L 558.89 775.89&#10;  Q 558.91 777.58 557.21 777.58&#10;  Q 442.31 777.54 320.27 777.81&#10;  Q 310.59 777.83 300.26 778.08&#10;  Q 288.21 778.38 271.71 778.02&#10;  Q 247.37 777.51 211.84 777.82&#10;  Q 210.19 777.83 210.24 776.19&#10;  L 210.30 773.59&#10;  Q 210.34 772.07 211.86 772.08&#10;  Z" data-c-fill="dd2033"/>
</svg>